<svg width="176" height="52" viewBox="0 0 176 52" fill="none" xmlns="http://www.w3.org/2000/svg">
<path d="M9.50163 25.932C7.86963 25.932 6.42963 25.596 5.18163 24.924C3.94963 24.236 2.98163 23.268 2.27763 22.02C1.58963 20.756 1.24563 19.268 1.24563 17.556C1.24563 15.892 1.58963 14.436 2.27763 13.188C2.96563 11.94 3.95763 10.972 5.25363 10.284C6.56563 9.58 8.14963 9.228 10.0056 9.228C10.8536 9.228 11.6376 9.324 12.3576 9.516C13.0936 9.708 13.7896 9.988 14.4456 10.356L14.5416 13.716H14.3016L12.9576 11.22C12.7496 10.82 12.5576 10.532 12.3816 10.356C12.2056 10.18 11.9816 10.044 11.7096 9.948C11.4536 9.868 11.2136 9.812 10.9896 9.78C10.7816 9.732 10.5016 9.708 10.1496 9.708C9.15763 9.708 8.27763 9.972 7.50963 10.5C6.75763 11.028 6.17363 11.868 5.75763 13.02C5.34163 14.172 5.13363 15.684 5.13363 17.556C5.13363 19.412 5.32563 20.924 5.70963 22.092C6.10963 23.26 6.66963 24.116 7.38963 24.66C8.10963 25.188 8.94163 25.452 9.88563 25.452C10.0296 25.452 10.1656 25.444 10.2936 25.428C10.4376 25.396 10.5736 25.364 10.7016 25.332C11.0056 25.284 11.2056 25.156 11.3016 24.948C11.3976 24.74 11.4456 24.492 11.4456 24.204V19.452C11.4456 18.828 11.1256 18.444 10.4856 18.3L9.38163 18.012V17.772H16.1496V18.012L15.8136 18.108C15.2056 18.3 14.9016 18.7 14.9016 19.308V24.516C14.0696 24.98 13.2216 25.332 12.3576 25.572C11.5096 25.812 10.5576 25.932 9.50163 25.932ZM16.9956 25.5V25.26L17.3556 25.164C17.6756 25.068 17.8916 24.924 18.0036 24.732C18.1316 24.54 18.1956 24.292 18.1956 23.988V16.476C18.1956 16.124 18.1316 15.868 18.0036 15.708C17.8916 15.532 17.6756 15.412 17.3556 15.348L16.9956 15.252V15.012L21.1236 13.62L21.3636 13.86L21.5796 15.924V16.116C21.8036 15.668 22.0916 15.26 22.4436 14.892C22.8116 14.508 23.2116 14.196 23.6436 13.956C24.0916 13.716 24.5316 13.596 24.9636 13.596C25.5716 13.596 26.0356 13.764 26.3556 14.1C26.6756 14.436 26.8356 14.86 26.8356 15.372C26.8356 15.916 26.6756 16.34 26.3556 16.644C26.0516 16.932 25.6836 17.076 25.2516 17.076C24.5796 17.076 23.9876 16.74 23.4756 16.068L23.4276 16.02C23.2676 15.796 23.0836 15.676 22.8756 15.66C22.6676 15.628 22.4756 15.724 22.2996 15.948C22.1396 16.092 22.0036 16.268 21.8916 16.476C21.7956 16.668 21.6996 16.892 21.6036 17.148V23.844C21.6036 24.484 21.8836 24.884 22.4436 25.044L23.2116 25.26V25.5H16.9956ZM30.5778 25.86C29.6498 25.86 28.8658 25.596 28.2258 25.068C27.6018 24.54 27.2898 23.78 27.2898 22.788C27.2898 22.036 27.6738 21.348 28.4418 20.724C29.2098 20.084 30.4178 19.604 32.0658 19.284C32.3218 19.236 32.6098 19.188 32.9297 19.14C33.2498 19.076 33.5858 19.012 33.9378 18.948V17.052C33.9378 15.964 33.8018 15.204 33.5298 14.772C33.2738 14.324 32.8658 14.1 32.3058 14.1C31.9218 14.1 31.6178 14.228 31.3938 14.484C31.1698 14.724 31.0258 15.148 30.9618 15.756L30.9138 16.02C30.8818 16.708 30.7138 17.212 30.4098 17.532C30.1058 17.852 29.7298 18.012 29.2818 18.012C28.8658 18.012 28.5218 17.884 28.2498 17.628C27.9778 17.372 27.8418 17.028 27.8418 16.596C27.8418 15.94 28.0658 15.388 28.5138 14.94C28.9778 14.492 29.5858 14.156 30.3378 13.932C31.0898 13.708 31.9058 13.596 32.7858 13.596C34.2098 13.596 35.3058 13.948 36.0738 14.652C36.8578 15.34 37.2498 16.468 37.2498 18.036V23.34C37.2498 24.06 37.5858 24.42 38.2578 24.42H38.7858L39.0018 24.612C38.6978 24.996 38.3618 25.292 37.9938 25.5C37.6418 25.708 37.1378 25.812 36.4818 25.812C35.7778 25.812 35.2178 25.652 34.8018 25.332C34.4018 24.996 34.1378 24.556 34.0098 24.012C33.5298 24.524 33.0338 24.964 32.5218 25.332C32.0258 25.684 31.3778 25.86 30.5778 25.86ZM32.0418 24.396C32.3618 24.396 32.6578 24.324 32.9297 24.18C33.2178 24.02 33.5538 23.78 33.9378 23.46V19.428C33.7778 19.46 33.6178 19.492 33.4578 19.524C33.2978 19.556 33.1138 19.588 32.9058 19.62C32.1698 19.812 31.5778 20.14 31.1298 20.604C30.6978 21.052 30.4818 21.66 30.4818 22.428C30.4818 23.084 30.6338 23.58 30.9378 23.916C31.2418 24.236 31.6098 24.396 32.0418 24.396ZM43.6476 25.86C42.8636 25.86 42.1596 25.764 41.5356 25.572C40.9116 25.396 40.3356 25.172 39.8076 24.9L39.8316 22.044H40.0716L40.8876 23.484C41.2396 24.124 41.6236 24.604 42.0396 24.924C42.4716 25.228 43.0156 25.38 43.6716 25.38C44.4396 25.38 45.0556 25.212 45.5196 24.876C45.9996 24.524 46.2396 24.06 46.2396 23.484C46.2396 22.956 46.0716 22.524 45.7356 22.188C45.3996 21.852 44.7756 21.548 43.8636 21.276L42.8556 20.964C41.8796 20.676 41.1116 20.228 40.5516 19.62C39.9916 19.012 39.7116 18.268 39.7116 17.388C39.7116 16.332 40.1276 15.436 40.9596 14.7C41.7916 13.964 42.9836 13.596 44.5356 13.596C45.1596 13.596 45.7436 13.668 46.2876 13.812C46.8476 13.94 47.3836 14.14 47.8956 14.412L47.7516 17.004H47.5116L46.6716 15.516C46.3676 14.988 46.0636 14.62 45.7596 14.412C45.4716 14.188 45.0316 14.076 44.4396 14.076C43.8956 14.076 43.3836 14.228 42.9036 14.532C42.4236 14.836 42.1836 15.268 42.1836 15.828C42.1836 16.372 42.3836 16.804 42.7836 17.124C43.1996 17.444 43.8076 17.74 44.6076 18.012L45.6876 18.324C46.8396 18.676 47.6636 19.164 48.1596 19.788C48.6556 20.396 48.9036 21.132 48.9036 21.996C48.9036 23.164 48.4396 24.1 47.5116 24.804C46.5996 25.508 45.3116 25.86 43.6476 25.86ZM52.7584 12.348C52.2144 12.348 51.7504 12.18 51.3664 11.844C50.9984 11.492 50.8144 11.052 50.8144 10.524C50.8144 9.98 50.9984 9.54 51.3664 9.204C51.7504 8.868 52.2144 8.7 52.7584 8.7C53.3024 8.7 53.7584 8.868 54.1264 9.204C54.4944 9.54 54.6784 9.98 54.6784 10.524C54.6784 11.052 54.4944 11.492 54.1264 11.844C53.7584 12.18 53.3024 12.348 52.7584 12.348ZM49.9264 25.5V25.26L50.2624 25.164C50.5824 25.068 50.7984 24.924 50.9104 24.732C51.0384 24.54 51.1024 24.284 51.1024 23.964V16.452C51.1024 16.116 51.0384 15.868 50.9104 15.708C50.7984 15.532 50.5824 15.412 50.2624 15.348L49.9264 15.276V15.036L54.3184 13.62L54.5584 13.86L54.4864 17.268V23.988C54.4864 24.308 54.5424 24.564 54.6544 24.756C54.7824 24.948 54.9984 25.092 55.3024 25.188L55.5424 25.26V25.5H49.9264ZM62.629 13.596C63.669 13.596 64.557 13.812 65.293 14.244C66.029 14.66 66.589 15.236 66.973 15.972C67.373 16.692 67.573 17.516 67.573 18.444C67.573 18.62 67.565 18.804 67.549 18.996C67.533 19.172 67.501 19.332 67.453 19.476H60.301C60.317 21.204 60.621 22.452 61.213 23.22C61.821 23.972 62.717 24.348 63.901 24.348C64.701 24.348 65.349 24.22 65.845 23.964C66.341 23.708 66.805 23.332 67.237 22.836L67.477 23.052C66.981 23.932 66.317 24.62 65.485 25.116C64.669 25.612 63.685 25.86 62.533 25.86C61.397 25.86 60.389 25.62 59.509 25.14C58.629 24.644 57.941 23.94 57.445 23.028C56.949 22.116 56.701 21.028 56.701 19.764C56.701 18.452 56.989 17.34 57.565 16.428C58.141 15.5 58.877 14.796 59.773 14.316C60.685 13.836 61.637 13.596 62.629 13.596ZM62.557 14.076C62.093 14.076 61.693 14.22 61.357 14.508C61.037 14.78 60.781 15.276 60.589 15.996C60.413 16.7 60.317 17.7 60.301 18.996H64.405C64.565 17.252 64.501 15.996 64.213 15.228C63.925 14.46 63.373 14.076 62.557 14.076ZM68.4661 25.5V25.26L68.7541 25.164C69.3301 24.972 69.6181 24.572 69.6181 23.964V11.124C69.6181 10.804 69.5541 10.564 69.4261 10.404C69.2981 10.228 69.0741 10.1 68.7541 10.02L68.4421 9.948V9.708L72.8341 8.676L73.1221 8.892L73.0261 12.252V20.46C73.0261 21.052 73.0261 21.644 73.0261 22.236C73.0421 22.812 73.0501 23.388 73.0501 23.964C73.0501 24.284 73.1141 24.548 73.2421 24.756C73.3701 24.948 73.5861 25.092 73.8901 25.188L74.2021 25.26V25.5H68.4661ZM75.3333 25.5V25.26L75.6213 25.164C76.1973 24.972 76.4853 24.572 76.4853 23.964V11.124C76.4853 10.804 76.4213 10.564 76.2933 10.404C76.1653 10.228 75.9413 10.1 75.6213 10.02L75.3093 9.948V9.708L79.7013 8.676L79.9893 8.892L79.8933 12.252V20.46C79.8933 21.052 79.8933 21.644 79.8933 22.236C79.9093 22.812 79.9173 23.388 79.9173 23.964C79.9173 24.284 79.9813 24.548 80.1093 24.756C80.2373 24.948 80.4533 25.092 80.7573 25.188L81.0693 25.26V25.5H75.3333ZM84.1021 31.26C83.4621 31.26 82.9501 31.1 82.5661 30.78C82.1981 30.46 82.0141 30.052 82.0141 29.556C82.0141 29.108 82.1741 28.748 82.4941 28.476C82.8141 28.204 83.1741 28.068 83.5741 28.068C83.9741 28.068 84.3101 28.148 84.5821 28.308C84.8541 28.484 85.0941 28.732 85.3021 29.052L85.4701 29.244C85.8221 29.724 86.1741 29.716 86.5261 29.22C86.6701 28.98 86.8301 28.66 87.0061 28.26C87.1981 27.876 87.4141 27.356 87.6541 26.7L82.9981 15.564C82.8861 15.26 82.7661 15.02 82.6381 14.844C82.5101 14.652 82.3021 14.492 82.0141 14.364L81.5821 14.196V13.956H87.5581V14.172L87.0781 14.364C86.7261 14.476 86.5421 14.66 86.5261 14.916C86.5261 15.156 86.5901 15.46 86.7181 15.828L89.2141 22.308L91.5901 15.756C91.7181 15.388 91.7661 15.084 91.7341 14.844C91.7021 14.588 91.5021 14.412 91.1341 14.316L90.6301 14.196V13.956H93.9661V14.196L93.4381 14.364C93.0701 14.476 92.8141 14.636 92.6701 14.844C92.5261 15.052 92.3901 15.34 92.2621 15.708L88.3981 26.244C87.7741 27.924 87.1501 29.18 86.5261 30.012C85.9021 30.844 85.0941 31.26 84.1021 31.26ZM100.036 25.5V25.26L100.54 25.068C100.876 24.94 101.084 24.788 101.164 24.612C101.26 24.42 101.308 24.164 101.308 23.844V11.316C101.308 10.996 101.26 10.74 101.164 10.548C101.068 10.356 100.86 10.204 100.54 10.092L100.036 9.9V9.66H106.156V9.9L105.724 10.092C105.42 10.204 105.212 10.364 105.1 10.572C104.988 10.764 104.932 11.02 104.932 11.34V25.02H108.628C109.22 25.02 109.652 24.876 109.924 24.588C110.212 24.3 110.484 23.884 110.74 23.34L111.676 21.324H111.916L111.7 25.5H100.036ZM116.453 25.86C115.525 25.86 114.741 25.596 114.101 25.068C113.477 24.54 113.165 23.78 113.165 22.788C113.165 22.036 113.549 21.348 114.317 20.724C115.085 20.084 116.293 19.604 117.941 19.284C118.197 19.236 118.485 19.188 118.805 19.14C119.125 19.076 119.461 19.012 119.813 18.948V17.052C119.813 15.964 119.677 15.204 119.405 14.772C119.149 14.324 118.741 14.1 118.181 14.1C117.797 14.1 117.493 14.228 117.269 14.484C117.045 14.724 116.901 15.148 116.837 15.756L116.789 16.02C116.757 16.708 116.589 17.212 116.285 17.532C115.981 17.852 115.605 18.012 115.157 18.012C114.741 18.012 114.397 17.884 114.125 17.628C113.853 17.372 113.717 17.028 113.717 16.596C113.717 15.94 113.941 15.388 114.389 14.94C114.853 14.492 115.461 14.156 116.213 13.932C116.965 13.708 117.781 13.596 118.661 13.596C120.085 13.596 121.181 13.948 121.949 14.652C122.733 15.34 123.125 16.468 123.125 18.036V23.34C123.125 24.06 123.461 24.42 124.133 24.42H124.661L124.877 24.612C124.573 24.996 124.237 25.292 123.869 25.5C123.517 25.708 123.013 25.812 122.357 25.812C121.653 25.812 121.093 25.652 120.677 25.332C120.277 24.996 120.013 24.556 119.885 24.012C119.405 24.524 118.909 24.964 118.397 25.332C117.901 25.684 117.253 25.86 116.453 25.86ZM117.917 24.396C118.237 24.396 118.533 24.324 118.805 24.18C119.093 24.02 119.429 23.78 119.813 23.46V19.428C119.653 19.46 119.493 19.492 119.333 19.524C119.173 19.556 118.989 19.588 118.781 19.62C118.045 19.812 117.453 20.14 117.005 20.604C116.573 21.052 116.357 21.66 116.357 22.428C116.357 23.084 116.509 23.58 116.813 23.916C117.117 24.236 117.485 24.396 117.917 24.396ZM125.324 25.5V25.26L125.684 25.164C126.004 25.068 126.22 24.924 126.332 24.732C126.46 24.54 126.524 24.292 126.524 23.988V16.476C126.524 16.124 126.46 15.868 126.332 15.708C126.22 15.532 126.004 15.412 125.684 15.348L125.324 15.252V15.012L129.452 13.62L129.692 13.86L129.908 15.924V16.116C130.132 15.668 130.42 15.26 130.772 14.892C131.14 14.508 131.54 14.196 131.972 13.956C132.42 13.716 132.86 13.596 133.292 13.596C133.9 13.596 134.364 13.764 134.684 14.1C135.004 14.436 135.164 14.86 135.164 15.372C135.164 15.916 135.004 16.34 134.684 16.644C134.38 16.932 134.012 17.076 133.58 17.076C132.908 17.076 132.316 16.74 131.804 16.068L131.756 16.02C131.596 15.796 131.412 15.676 131.204 15.66C130.996 15.628 130.804 15.724 130.628 15.948C130.468 16.092 130.332 16.268 130.22 16.476C130.124 16.668 130.028 16.892 129.932 17.148V23.844C129.932 24.484 130.212 24.884 130.772 25.044L131.54 25.26V25.5H125.324ZM138.798 12.348C138.254 12.348 137.79 12.18 137.406 11.844C137.038 11.492 136.854 11.052 136.854 10.524C136.854 9.98 137.038 9.54 137.406 9.204C137.79 8.868 138.254 8.7 138.798 8.7C139.342 8.7 139.798 8.868 140.166 9.204C140.534 9.54 140.718 9.98 140.718 10.524C140.718 11.052 140.534 11.492 140.166 11.844C139.798 12.18 139.342 12.348 138.798 12.348ZM135.966 25.5V25.26L136.302 25.164C136.622 25.068 136.838 24.924 136.95 24.732C137.078 24.54 137.142 24.284 137.142 23.964V16.452C137.142 16.116 137.078 15.868 136.95 15.708C136.838 15.532 136.622 15.412 136.302 15.348L135.966 15.276V15.036L140.358 13.62L140.598 13.86L140.526 17.268V23.988C140.526 24.308 140.582 24.564 140.694 24.756C140.822 24.948 141.038 25.092 141.342 25.188L141.582 25.26V25.5H135.966ZM146.796 25.86C146.012 25.86 145.308 25.764 144.684 25.572C144.06 25.396 143.484 25.172 142.956 24.9L142.98 22.044H143.22L144.036 23.484C144.388 24.124 144.772 24.604 145.188 24.924C145.62 25.228 146.164 25.38 146.82 25.38C147.588 25.38 148.204 25.212 148.668 24.876C149.148 24.524 149.388 24.06 149.388 23.484C149.388 22.956 149.22 22.524 148.884 22.188C148.548 21.852 147.924 21.548 147.012 21.276L146.004 20.964C145.028 20.676 144.26 20.228 143.7 19.62C143.14 19.012 142.86 18.268 142.86 17.388C142.86 16.332 143.276 15.436 144.108 14.7C144.94 13.964 146.132 13.596 147.684 13.596C148.308 13.596 148.892 13.668 149.436 13.812C149.996 13.94 150.532 14.14 151.044 14.412L150.9 17.004H150.66L149.82 15.516C149.516 14.988 149.212 14.62 148.908 14.412C148.62 14.188 148.18 14.076 147.588 14.076C147.044 14.076 146.532 14.228 146.052 14.532C145.572 14.836 145.332 15.268 145.332 15.828C145.332 16.372 145.532 16.804 145.932 17.124C146.348 17.444 146.956 17.74 147.756 18.012L148.836 18.324C149.988 18.676 150.812 19.164 151.308 19.788C151.804 20.396 152.052 21.132 152.052 21.996C152.052 23.164 151.588 24.1 150.66 24.804C149.748 25.508 148.46 25.86 146.796 25.86ZM157.249 25.86C156.465 25.86 155.761 25.764 155.137 25.572C154.513 25.396 153.937 25.172 153.409 24.9L153.433 22.044H153.673L154.489 23.484C154.841 24.124 155.225 24.604 155.641 24.924C156.073 25.228 156.617 25.38 157.273 25.38C158.041 25.38 158.657 25.212 159.121 24.876C159.601 24.524 159.841 24.06 159.841 23.484C159.841 22.956 159.673 22.524 159.337 22.188C159.001 21.852 158.377 21.548 157.465 21.276L156.457 20.964C155.481 20.676 154.713 20.228 154.153 19.62C153.593 19.012 153.313 18.268 153.313 17.388C153.313 16.332 153.729 15.436 154.561 14.7C155.393 13.964 156.585 13.596 158.137 13.596C158.761 13.596 159.345 13.668 159.889 13.812C160.449 13.94 160.985 14.14 161.497 14.412L161.353 17.004H161.113L160.273 15.516C159.969 14.988 159.665 14.62 159.361 14.412C159.073 14.188 158.633 14.076 158.041 14.076C157.497 14.076 156.985 14.228 156.505 14.532C156.025 14.836 155.785 15.268 155.785 15.828C155.785 16.372 155.985 16.804 156.385 17.124C156.801 17.444 157.409 17.74 158.209 18.012L159.289 18.324C160.441 18.676 161.265 19.164 161.761 19.788C162.257 20.396 162.505 21.132 162.505 21.996C162.505 23.164 162.041 24.1 161.113 24.804C160.201 25.508 158.913 25.86 157.249 25.86ZM169.574 13.596C170.614 13.596 171.502 13.812 172.238 14.244C172.974 14.66 173.534 15.236 173.918 15.972C174.318 16.692 174.518 17.516 174.518 18.444C174.518 18.62 174.51 18.804 174.494 18.996C174.478 19.172 174.446 19.332 174.398 19.476H167.246C167.262 21.204 167.566 22.452 168.158 23.22C168.766 23.972 169.662 24.348 170.846 24.348C171.646 24.348 172.294 24.22 172.79 23.964C173.286 23.708 173.75 23.332 174.182 22.836L174.422 23.052C173.926 23.932 173.262 24.62 172.43 25.116C171.614 25.612 170.63 25.86 169.478 25.86C168.342 25.86 167.334 25.62 166.454 25.14C165.574 24.644 164.886 23.94 164.39 23.028C163.894 22.116 163.646 21.028 163.646 19.764C163.646 18.452 163.934 17.34 164.51 16.428C165.086 15.5 165.822 14.796 166.718 14.316C167.63 13.836 168.582 13.596 169.574 13.596ZM169.502 14.076C169.038 14.076 168.638 14.22 168.302 14.508C167.982 14.78 167.726 15.276 167.534 15.996C167.358 16.7 167.262 17.7 167.246 18.996H171.35C171.51 17.252 171.446 15.996 171.158 15.228C170.87 14.46 170.318 14.076 169.502 14.076Z" fill="#F5F5F5"/>
<path d="M61.4062 46.5L59.8516 42.4609H55.0547L53.4688 46.5H52.6484L57.1406 35.0391H57.875L62.25 46.5H61.4062ZM59.5938 41.7344L58.0156 37.4531C57.974 37.3438 57.9219 37.2031 57.8594 37.0312C57.8021 36.8594 57.7396 36.6771 57.6719 36.4844C57.6094 36.2917 57.5469 36.1094 57.4844 35.9375C57.4323 36.1198 57.375 36.3021 57.3125 36.4844C57.25 36.6667 57.1901 36.8438 57.1328 37.0156C57.0755 37.1823 57.0208 37.3333 56.9688 37.4688L55.3281 41.7344H59.5938ZM66.7422 46.6562C65.5807 46.6562 64.6953 46.2917 64.0859 45.5625C63.4818 44.8281 63.1797 43.7604 63.1797 42.3594C63.1797 40.8906 63.5 39.7708 64.1406 39C64.7812 38.2292 65.6745 37.8438 66.8203 37.8438C67.3099 37.8438 67.7344 37.9193 68.0938 38.0703C68.4583 38.2214 68.763 38.4271 69.0078 38.6875C69.2578 38.9427 69.4505 39.2344 69.5859 39.5625H69.6484C69.6276 39.2865 69.612 38.9896 69.6016 38.6719C69.5911 38.3542 69.5859 38.0625 69.5859 37.7969V34.3438H70.375V46.5H69.7344L69.6328 44.9453H69.5859C69.4453 45.2578 69.25 45.5443 69 45.8047C68.7552 46.0651 68.4479 46.2734 68.0781 46.4297C67.7083 46.5807 67.263 46.6562 66.7422 46.6562ZM66.8281 45.9688C67.8281 45.9688 68.5391 45.6589 68.9609 45.0391C69.3828 44.4141 69.5938 43.5234 69.5938 42.3672V42.2422C69.5938 41.0443 69.3828 40.1276 68.9609 39.4922C68.5391 38.8516 67.8516 38.5312 66.8984 38.5312C65.9557 38.5312 65.2344 38.8594 64.7344 39.5156C64.2396 40.1719 63.9922 41.125 63.9922 42.375C63.9922 43.5521 64.224 44.4453 64.6875 45.0547C65.1562 45.6641 65.8698 45.9688 66.8281 45.9688ZM75.0469 46.5L71.7891 38.0078H72.625L74.8047 43.7969C74.9401 44.1458 75.0599 44.4818 75.1641 44.8047C75.2734 45.1224 75.3646 45.4115 75.4375 45.6719H75.4766C75.5599 45.4115 75.6536 45.1198 75.7578 44.7969C75.8672 44.474 75.987 44.1406 76.1172 43.7969L78.2969 38.0078H79.1406L75.875 46.5H75.0469ZM87.6016 42.2422C87.6016 42.8984 87.5208 43.4974 87.3594 44.0391C87.1979 44.5755 86.9583 45.0391 86.6406 45.4297C86.3229 45.8203 85.9271 46.1224 85.4531 46.3359C84.9844 46.5495 84.4375 46.6562 83.8125 46.6562C83.2188 46.6562 82.6901 46.5521 82.2266 46.3438C81.763 46.1302 81.3698 45.8281 81.0469 45.4375C80.7292 45.0469 80.487 44.5833 80.3203 44.0469C80.1536 43.5052 80.0703 42.9036 80.0703 42.2422C80.0703 41.3307 80.2214 40.5469 80.5234 39.8906C80.8307 39.2292 81.2682 38.724 81.8359 38.375C82.4089 38.0208 83.0938 37.8438 83.8906 37.8438C84.7135 37.8438 85.3984 38.0312 85.9453 38.4062C86.4974 38.776 86.9115 39.2917 87.1875 39.9531C87.4635 40.6146 87.6016 41.3776 87.6016 42.2422ZM80.8828 42.2422C80.8828 42.987 80.9896 43.638 81.2031 44.1953C81.4167 44.7526 81.7396 45.1875 82.1719 45.5C82.6094 45.8125 83.1615 45.9688 83.8281 45.9688C84.5104 45.9688 85.0703 45.8125 85.5078 45.5C85.9453 45.1875 86.2682 44.75 86.4766 44.1875C86.6849 43.625 86.7891 42.9766 86.7891 42.2422C86.7891 41.5286 86.6901 40.8932 86.4922 40.3359C86.2943 39.7786 85.9818 39.3411 85.5547 39.0234C85.1276 38.7005 84.5703 38.5391 83.8828 38.5391C82.8984 38.5391 82.151 38.8672 81.6406 39.5234C81.1354 40.1797 80.8828 41.0859 80.8828 42.2422ZM92.1953 50.3438C91.1276 50.3438 90.2969 50.138 89.7031 49.7266C89.1146 49.3151 88.8203 48.7396 88.8203 48C88.8203 47.4271 89 46.9323 89.3594 46.5156C89.7188 46.1042 90.2057 45.8568 90.8203 45.7734C90.5755 45.6589 90.375 45.5026 90.2188 45.3047C90.0677 45.1068 89.9922 44.8776 89.9922 44.6172C89.9922 44.3255 90.0833 44.0547 90.2656 43.8047C90.4479 43.5495 90.7214 43.3151 91.0859 43.1016C90.5964 42.9245 90.2109 42.625 89.9297 42.2031C89.6484 41.776 89.5078 41.263 89.5078 40.6641C89.5078 40.0911 89.6302 39.5938 89.875 39.1719C90.1198 38.75 90.4661 38.4245 90.9141 38.1953C91.3672 37.9609 91.901 37.8438 92.5156 37.8438C92.7031 37.8438 92.8724 37.849 93.0234 37.8594C93.1797 37.8698 93.3229 37.888 93.4531 37.9141C93.5833 37.9349 93.7005 37.9635 93.8047 38H96.5469V38.5625L94.7969 38.6797C95.026 38.9557 95.1979 39.2552 95.3125 39.5781C95.4271 39.8958 95.4844 40.2318 95.4844 40.5859C95.4844 41.4297 95.2188 42.099 94.6875 42.5938C94.1562 43.0885 93.4167 43.3359 92.4688 43.3359C92.2083 43.3359 91.9531 43.3125 91.7031 43.2656C91.3854 43.4531 91.1432 43.6432 90.9766 43.8359C90.8099 44.0234 90.7266 44.2578 90.7266 44.5391C90.7266 44.7161 90.7786 44.862 90.8828 44.9766C90.987 45.0859 91.138 45.1719 91.3359 45.2344C91.5339 45.2917 91.776 45.3203 92.0625 45.3203H93.5547C94.4766 45.3203 95.1823 45.5078 95.6719 45.8828C96.1615 46.2578 96.4062 46.8099 96.4062 47.5391C96.4062 48.4297 96.0391 49.1198 95.3047 49.6094C94.5755 50.099 93.5391 50.3438 92.1953 50.3438ZM92.25 49.6797C92.9948 49.6797 93.6146 49.599 94.1094 49.4375C94.6094 49.276 94.9844 49.0365 95.2344 48.7188C95.4844 48.4062 95.6094 48.0182 95.6094 47.5547C95.6094 47.1745 95.5182 46.8802 95.3359 46.6719C95.1536 46.4635 94.8958 46.3203 94.5625 46.2422C94.2292 46.1589 93.8359 46.1172 93.3828 46.1172H91.9609C91.5078 46.1172 91.1042 46.1797 90.75 46.3047C90.3958 46.4245 90.1198 46.6172 89.9219 46.8828C89.7292 47.1484 89.6328 47.5026 89.6328 47.9453C89.6328 48.513 89.8542 48.9427 90.2969 49.2344C90.7448 49.5312 91.3958 49.6797 92.25 49.6797ZM92.5 42.7031C93.2031 42.7031 93.7422 42.526 94.1172 42.1719C94.4922 41.8177 94.6797 41.3047 94.6797 40.6328C94.6797 39.9141 94.487 39.375 94.1016 39.0156C93.7161 38.6562 93.1771 38.4766 92.4844 38.4766C91.8125 38.4766 91.2839 38.6693 90.8984 39.0547C90.5182 39.4349 90.3281 39.9714 90.3281 40.6641C90.3281 41.3099 90.5104 41.8125 90.875 42.1719C91.2396 42.526 91.7812 42.7031 92.5 42.7031ZM101.227 37.8594C102.159 37.8594 102.857 38.0938 103.32 38.5625C103.784 39.0312 104.016 39.7786 104.016 40.8047V46.5H103.406L103.266 45.0156H103.219C103.036 45.3333 102.815 45.6172 102.555 45.8672C102.294 46.112 101.974 46.3047 101.594 46.4453C101.219 46.5859 100.76 46.6562 100.219 46.6562C99.6719 46.6562 99.2031 46.5651 98.8125 46.3828C98.4271 46.2005 98.1276 45.9349 97.9141 45.5859C97.7057 45.237 97.6016 44.8125 97.6016 44.3125C97.6016 43.4688 97.9505 42.8281 98.6484 42.3906C99.3464 41.9479 100.349 41.6979 101.656 41.6406L103.234 41.5625V40.9453C103.234 40.0755 103.062 39.4557 102.719 39.0859C102.375 38.7161 101.867 38.5312 101.195 38.5312C100.758 38.5312 100.336 38.5885 99.9297 38.7031C99.5286 38.8125 99.1198 38.9714 98.7031 39.1797L98.4531 38.5234C98.8594 38.3307 99.2943 38.1719 99.7578 38.0469C100.227 37.9219 100.716 37.8594 101.227 37.8594ZM103.227 42.1797L101.742 42.2422C100.664 42.2943 99.8438 42.487 99.2812 42.8203C98.7188 43.1536 98.4375 43.6536 98.4375 44.3203C98.4375 44.8568 98.6042 45.2682 98.9375 45.5547C99.276 45.8411 99.7448 45.9844 100.344 45.9844C101.276 45.9844 101.987 45.7188 102.477 45.1875C102.971 44.6562 103.221 43.9323 103.227 43.0156V42.1797ZM109.82 46.6562C108.659 46.6562 107.773 46.2917 107.164 45.5625C106.56 44.8281 106.258 43.7604 106.258 42.3594C106.258 40.8906 106.578 39.7708 107.219 39C107.859 38.2292 108.753 37.8438 109.898 37.8438C110.388 37.8438 110.812 37.9193 111.172 38.0703C111.536 38.2214 111.841 38.4271 112.086 38.6875C112.336 38.9427 112.529 39.2344 112.664 39.5625H112.727C112.706 39.2865 112.69 38.9896 112.68 38.6719C112.669 38.3542 112.664 38.0625 112.664 37.7969V34.3438H113.453V46.5H112.812L112.711 44.9453H112.664C112.523 45.2578 112.328 45.5443 112.078 45.8047C111.833 46.0651 111.526 46.2734 111.156 46.4297C110.786 46.5807 110.341 46.6562 109.82 46.6562ZM109.906 45.9688C110.906 45.9688 111.617 45.6589 112.039 45.0391C112.461 44.4141 112.672 43.5234 112.672 42.3672V42.2422C112.672 41.0443 112.461 40.1276 112.039 39.4922C111.617 38.8516 110.93 38.5312 109.977 38.5312C109.034 38.5312 108.312 38.8594 107.812 39.5156C107.318 40.1719 107.07 41.125 107.07 42.375C107.07 43.5521 107.302 44.4453 107.766 45.0547C108.234 45.6641 108.948 45.9688 109.906 45.9688ZM119.242 37.8594C120.174 37.8594 120.872 38.0938 121.336 38.5625C121.799 39.0312 122.031 39.7786 122.031 40.8047V46.5H121.422L121.281 45.0156H121.234C121.052 45.3333 120.831 45.6172 120.57 45.8672C120.31 46.112 119.99 46.3047 119.609 46.4453C119.234 46.5859 118.776 46.6562 118.234 46.6562C117.688 46.6562 117.219 46.5651 116.828 46.3828C116.443 46.2005 116.143 45.9349 115.93 45.5859C115.721 45.237 115.617 44.8125 115.617 44.3125C115.617 43.4688 115.966 42.8281 116.664 42.3906C117.362 41.9479 118.365 41.6979 119.672 41.6406L121.25 41.5625V40.9453C121.25 40.0755 121.078 39.4557 120.734 39.0859C120.391 38.7161 119.883 38.5312 119.211 38.5312C118.773 38.5312 118.352 38.5885 117.945 38.7031C117.544 38.8125 117.135 38.9714 116.719 39.1797L116.469 38.5234C116.875 38.3307 117.31 38.1719 117.773 38.0469C118.242 37.9219 118.732 37.8594 119.242 37.8594ZM121.242 42.1797L119.758 42.2422C118.68 42.2943 117.859 42.487 117.297 42.8203C116.734 43.1536 116.453 43.6536 116.453 44.3203C116.453 44.8568 116.62 45.2682 116.953 45.5547C117.292 45.8411 117.76 45.9844 118.359 45.9844C119.292 45.9844 120.003 45.7188 120.492 45.1875C120.987 44.6562 121.237 43.9323 121.242 43.0156V42.1797Z" fill="#AFAFAF"/>
</svg>
